<?xml version="1.0" standalone="no"?>
<!DOCTYPE svg PUBLIC "-//W3C//DTD SVG 20010904//EN"
 "http://www.w3.org/TR/2001/REC-SVG-20010904/DTD/svg10.dtd">
<svg version="1.0" xmlns="http://www.w3.org/2000/svg"
 width="2000.000000pt" height="2000.000000pt" viewBox="0 0 2000.000000 2000.000000"
 preserveAspectRatio="xMidYMid meet">
<metadata>
Created by potrace 1.11, written by Peter Selinger 2001-2013
</metadata>
<g transform="translate(0.000000,2000.000000) scale(0.100000,-0.100000)"
fill="#000000" stroke="none">
<path d="M9830 17993 c-80 -47 -208 -121 -285 -166 -77 -44 -165 -95 -195
-113 -30 -17 -156 -90 -280 -162 -124 -71 -241 -139 -260 -151 -19 -11 -42
-24 -50 -28 -8 -4 -46 -26 -85 -48 -38 -23 -90 -53 -115 -67 -55 -31 -89 -50
-203 -117 -49 -28 -92 -51 -97 -51 -5 0 -10 -4 -12 -9 -1 -5 -25 -20 -53 -35
-27 -15 -63 -35 -80 -45 -16 -10 -56 -32 -89 -50 -32 -18 -98 -56 -146 -85
-49 -28 -103 -60 -122 -70 -18 -11 -103 -60 -188 -109 -85 -49 -168 -97 -185
-107 -54 -30 -140 -81 -155 -90 -14 -9 -594 -343 -685 -395 -22 -12 -80 -46
-130 -75 -49 -29 -110 -64 -135 -78 -25 -13 -70 -39 -100 -57 -30 -18 -98 -57
-150 -88 -52 -30 -166 -96 -252 -146 -87 -50 -162 -91 -168 -91 -5 0 -10 -4
-10 -10 0 -5 -4 -10 -9 -10 -4 0 -102 -55 -217 -121 -188 -109 -626 -362 -707
-408 -18 -10 -120 -69 -227 -131 -107 -62 -208 -121 -225 -130 -54 -31 -418
-241 -510 -295 -49 -29 -112 -65 -140 -80 -27 -15 -54 -31 -60 -35 -5 -5 -37
-23 -70 -40 -33 -18 -67 -38 -75 -44 -8 -7 -40 -25 -70 -40 -30 -16 -62 -34
-70 -41 -8 -7 -22 -15 -30 -18 -8 -3 -55 -30 -105 -59 l-90 -54 -2 -4044 -3
-4045 23 -11 c12 -6 92 -52 177 -101 85 -49 270 -156 410 -237 140 -81 262
-151 270 -156 8 -5 42 -25 75 -43 33 -19 287 -166 565 -327 278 -161 525 -304
550 -318 25 -14 124 -71 220 -127 96 -56 182 -105 190 -109 8 -4 24 -12 35
-19 38 -23 230 -135 265 -155 19 -11 118 -68 220 -127 102 -59 203 -117 225
-129 71 -39 240 -138 250 -146 6 -4 46 -28 90 -52 44 -24 199 -113 345 -198
146 -84 279 -161 295 -170 17 -9 143 -82 280 -162 138 -80 273 -158 301 -174
44 -25 300 -173 359 -207 11 -6 48 -29 82 -49 34 -21 65 -38 67 -38 3 0 50
-27 105 -60 55 -33 103 -60 106 -60 3 0 18 -9 33 -19 21 -15 349 -205 537
-311 17 -9 89 -51 160 -92 72 -42 146 -85 165 -96 19 -11 62 -35 95 -54 33
-19 92 -54 132 -76 39 -23 87 -50 105 -61 189 -110 265 -151 273 -149 9 3 91
49 323 183 9 6 53 31 97 56 44 25 184 106 310 179 127 73 345 199 485 280 140
81 588 340 995 575 407 235 756 436 775 447 19 10 42 23 50 28 44 28 273 160
276 160 3 0 23 11 45 26 22 14 57 34 77 46 20 11 127 72 237 136 425 246 559
322 563 322 2 0 16 8 30 19 15 10 50 31 77 46 67 38 62 35 460 265 342 197
419 242 460 267 11 7 26 15 34 19 8 4 159 91 335 193 177 102 556 321 843 486
l522 300 0 4045 0 4045 -166 95 c-91 52 -182 104 -202 115 -40 22 -152 88
-209 122 -21 11 -48 27 -62 35 -57 32 -841 485 -915 528 -91 54 -519 301 -580
336 -23 12 -124 71 -225 129 -102 59 -203 118 -225 130 -22 13 -123 71 -225
130 -102 60 -194 113 -205 119 -70 39 -321 184 -343 198 -15 9 -49 28 -75 43
-26 14 -93 52 -148 85 -56 33 -103 60 -105 60 -2 0 -32 17 -66 38 -35 21 -88
52 -118 69 -30 16 -93 53 -140 80 -47 28 -108 64 -136 79 -49 28 -309 178
-369 214 -16 9 -165 95 -330 190 -305 176 -543 313 -830 480 -88 51 -180 104
-205 118 -25 13 -49 28 -55 32 -5 4 -32 19 -58 34 -76 42 -448 256 -489 283
-21 12 -40 23 -42 23 -2 0 -50 27 -105 60 -56 33 -105 60 -110 60 -5 0 -11 3
-13 8 -1 4 -23 18 -48 31 -25 14 -74 42 -109 63 -35 21 -73 40 -85 43 -14 2
-70 -25 -166 -82z m1907 -4945 c954 -550 1741 -1007 1749 -1015 12 -12 14
-305 14 -2038 l0 -2023 -1746 -1008 c-961 -555 -1755 -1010 -1765 -1012 -11
-2 -19 1 -19 7 0 6 -7 11 -15 11 -8 0 -15 4 -15 8 0 5 -16 14 -35 22 -19 8
-35 18 -35 22 0 5 -4 6 -10 3 -5 -3 -10 -2 -10 3 0 5 -22 19 -50 32 -27 13
-50 27 -50 32 0 5 -4 6 -10 3 -5 -3 -10 -2 -10 2 0 5 -18 16 -40 26 -22 9 -40
22 -40 28 0 5 -4 7 -10 4 -5 -3 -10 -1 -10 5 0 6 -4 8 -10 5 -5 -3 -10 -1 -10
5 0 6 -4 8 -10 5 -5 -3 -10 -2 -10 3 0 5 -18 17 -40 27 -22 10 -40 22 -40 27
0 5 -4 7 -9 4 -4 -3 -18 3 -30 13 -12 10 -35 24 -51 31 -17 7 -30 17 -30 22 0
5 -4 7 -9 3 -5 -3 -17 2 -25 11 -9 8 -16 12 -16 7 0 -4 -6 -1 -13 8 -7 9 -16
17 -22 19 -27 7 -55 24 -55 32 0 5 -4 6 -10 3 -5 -3 -10 -1 -10 5 0 6 -4 8
-10 5 -5 -3 -10 -1 -10 4 0 6 -7 11 -15 11 -8 0 -15 5 -15 10 0 6 -9 10 -20
10 -11 0 -20 5 -20 10 0 6 -7 10 -15 10 -8 0 -15 5 -15 11 0 5 -4 7 -10 4 -5
-3 -10 -1 -10 5 0 6 -4 9 -9 6 -5 -3 -12 1 -15 9 -3 8 -9 14 -13 13 -12 -3
-63 24 -63 34 0 4 -3 7 -7 6 -7 -3 -55 22 -103 53 -8 5 -23 12 -32 15 -10 4
-18 10 -18 13 0 4 -22 18 -50 31 -27 13 -50 27 -50 32 0 5 -4 6 -10 3 -5 -3
-10 -1 -10 5 0 6 -4 8 -10 5 -5 -3 -10 -1 -10 4 0 6 -7 11 -15 11 -8 0 -15 5
-15 11 0 5 -4 8 -9 5 -5 -3 -14 1 -21 9 -7 8 -19 15 -26 15 -8 0 -14 5 -14 11
0 5 -4 7 -10 4 -5 -3 -10 -1 -10 5 0 6 -4 8 -10 5 -5 -3 -10 -2 -10 3 0 5 -13
15 -30 22 -16 7 -30 17 -30 22 0 5 -4 6 -10 3 -5 -3 -10 -1 -10 5 0 6 -4 9 -9
5 -5 -3 -15 1 -23 8 -12 13 -39 28 -98 59 -14 7 -28 17 -32 23 -4 5 -11 10
-15 10 -17 1 -83 38 -83 47 0 5 -4 6 -10 3 -5 -3 -10 -1 -10 5 0 6 -4 9 -9 6
-5 -3 -12 1 -15 10 -3 8 -10 12 -16 9 -5 -3 -10 -1 -10 5 0 6 -4 8 -10 5 -5
-3 -10 -1 -10 5 0 6 -4 8 -10 5 -5 -3 -10 -1 -10 4 0 6 -7 11 -15 11 -8 0 -15
5 -15 11 0 5 -4 7 -10 4 -5 -3 -10 -2 -10 3 0 5 -8 12 -17 15 -25 8 -97 50
-101 60 -2 4 -9 7 -17 7 -7 0 -18 7 -25 15 -7 9 -15 13 -18 11 -3 -3 -17 3
-32 14 -16 11 -33 20 -38 20 -5 0 -13 7 -16 16 -3 8 -10 13 -15 10 -5 -3 -14
1 -21 9 -7 8 -16 12 -21 10 -4 -3 -12 3 -18 12 -5 10 -12 17 -15 16 -11 -4
-41 11 -49 24 -5 7 -12 11 -16 8 -5 -2 -14 2 -21 10 -7 8 -16 12 -21 9 -5 -3
-12 2 -15 10 -3 9 -10 14 -14 11 -5 -3 -11 -1 -15 4 -3 6 -26 20 -50 32 -25
12 -45 27 -45 31 0 5 -4 6 -10 3 -5 -3 -10 -1 -10 5 0 6 -4 8 -10 5 -5 -3 -10
-1 -10 4 0 6 -7 11 -15 11 -8 0 -15 5 -15 11 0 5 -4 8 -9 5 -5 -3 -14 1 -21 9
-7 8 -18 15 -26 15 -7 0 -20 7 -28 16 -9 8 -16 13 -16 9 0 -4 -7 1 -16 9 -8 9
-22 16 -30 16 -8 0 -14 5 -14 11 0 5 -4 8 -8 5 -5 -3 -19 4 -30 15 -12 11 -22
17 -22 14 0 -2 -9 3 -20 13 -12 9 -24 17 -28 17 -11 1 -106 58 -113 68 -3 5
-10 9 -15 9 -18 1 -54 21 -54 30 0 5 -4 7 -9 3 -5 -3 -16 0 -23 7 -14 13 -18
16 -98 59 -25 13 -49 30 -53 37 -5 7 -12 10 -18 7 -5 -4 -9 -1 -9 4 0 6 -9 11
-20 11 -11 0 -23 7 -26 15 -4 8 -10 13 -14 10 -4 -2 -18 4 -30 15 -13 11 -28
20 -35 20 -6 0 -22 10 -35 23 -14 12 -27 21 -30 20 -8 -4 -40 8 -41 15 -5 25
-3 4056 1 4063 9 13 3483 2018 3499 2019 7 0 794 -451 1748 -1002z"/>
</g>
</svg>
