<svg id="Layer_1" data-name="Layer 1" xmlns="http://www.w3.org/2000/svg" viewBox="0 0 276.29 98.15"><defs><style>.cls-1{fill:#d3ace8;}.cls-2{fill:#eda2d0;}.cls-3{fill:#f7c1e0;}.cls-4{opacity:0.9;}.cls-5{fill:#ae72dd;}.cls-6{fill:#f77fbe;}.cls-7{fill:#eaa0d1;}</style></defs><path d="M147.65,25.35V68.43h-10V50.67H120.11V68.43h-10V25.35h10v16.8h17.52V25.35Z"/><path d="M158.57,79.4a26.72,26.72,0,0,1-3.6-.18V71.6a15,15,0,0,0,2.4.18c2,0,3.3-.53,4.14-2.69l.78-2L151.07,36.81H161l6.48,19.44,6.36-19.44h9.53L171.28,69.14C169,75.51,166.07,79.4,158.57,79.4Z"/><path d="M196.07,65.3V79h-9.6V36.81h9.6V40a10.65,10.65,0,0,1,8.57-3.84c8.7,0,13.62,7.44,13.62,16.5s-4.92,16.44-13.62,16.44A10.8,10.8,0,0,1,196.07,65.3ZM196,53.49c0,4.74,2.58,7.44,6.18,7.44,4.2,0,6.42-3.42,6.42-8.28s-2.22-8.28-6.42-8.28c-3.6,0-6.18,2.64-6.18,7.44Z"/><path d="M221.2,52.59c0-9.36,6.72-16.44,15.84-16.44,9.6,0,14.82,7.08,14.82,16v2.52H230.44c.66,4.32,3.24,6.78,6.9,6.78,3,0,5.34-1.44,6.24-4.2l8,2.58c-2.34,6.06-8.1,9.24-14.4,9.24C227.68,69.09,221.2,62.43,221.2,52.59Zm9.54-3.78h11.64a5.1,5.1,0,0,0-5.46-5.22C234,43.59,231.7,45.33,230.74,48.81Z"/><path d="M276.1,46a14.51,14.51,0,0,0-2.82-.24c-4.14,0-7.44,2.58-7.44,7.14V68.43h-9.6V36.81h9.6V41A9.28,9.28,0,0,1,274,36.63a19,19,0,0,1,2.1.12Z"/><g id="Logo"><g id="Cube_1" data-name="Cube 1"><polygon class="cls-1" points="0 24.54 0 73.61 42.5 98.15 42.5 49.08 0 24.54"/><polygon class="cls-2" points="42.5 49.08 42.5 98.15 85 73.61 85 24.54 42.5 49.08"/><polygon class="cls-3" points="85 24.54 42.5 49.08 0 24.54 42.5 0 85 24.54"/></g><g id="Cube_2" data-name="Cube 2" class="cls-4"><polygon class="cls-5" points="21.25 36.8 21.25 61.34 42.5 73.61 42.5 49.07 21.25 36.8"/><polygon class="cls-6" points="42.5 49.07 42.5 73.61 63.75 61.34 63.75 36.8 42.5 49.07"/><polygon class="cls-7" points="63.75 36.8 42.5 49.07 21.25 36.8 42.5 24.53 63.75 36.8"/></g></g></svg>